<svg xmlns="http://www.w3.org/2000/svg" width="26.87" height="33.587" viewBox="0 0 26.87 33.587">
  <path id="Path_17" data-name="Path 17" d="M17.435,20.473a1.679,1.679,0,0,0-1.679,1.679V27.19a1.679,1.679,0,0,0,3.359,0V22.152A1.679,1.679,0,0,0,17.435,20.473Zm8.4-6.717V10.4a8.4,8.4,0,1,0-16.793,0v3.359A5.038,5.038,0,0,0,4,18.793V30.549a5.038,5.038,0,0,0,5.038,5.038H25.831a5.038,5.038,0,0,0,5.038-5.038V18.793A5.038,5.038,0,0,0,25.831,13.755ZM12.4,10.4a5.038,5.038,0,0,1,10.076,0v3.359H12.4ZM27.511,30.549a1.679,1.679,0,0,1-1.679,1.679H9.038a1.679,1.679,0,0,1-1.679-1.679V18.793a1.679,1.679,0,0,1,1.679-1.679H25.831a1.679,1.679,0,0,1,1.679,1.679Z" transform="translate(-4 -2)" fill="#fff"/>
</svg>
