<svg xmlns="http://www.w3.org/2000/svg" width="27" height="33.618" viewBox="0 0 27 33.618">
  <path id="Path_18" data-name="Path 18" d="M152.241,48.809a7.48,7.48,0,0,1-.061.937c.018-.125.036-.253.05-.378a7.314,7.314,0,0,1-.488,1.8c.046-.114.1-.228.143-.342a7.114,7.114,0,0,1-.919,1.575l.224-.289a7.244,7.244,0,0,1-1.279,1.279l.289-.224a7.256,7.256,0,0,1-1.575.919c.114-.046.228-.1.342-.143a7.314,7.314,0,0,1-1.8.488c.125-.018.253-.036.378-.05a7.174,7.174,0,0,1-1.874,0c.125.018.253.036.378.05a7.314,7.314,0,0,1-1.8-.488c.114.046.228.1.342.143a7.114,7.114,0,0,1-1.575-.919l.289.224a7.244,7.244,0,0,1-1.279-1.279l.224.289a7.256,7.256,0,0,1-.919-1.575c.046.114.1.228.143.342a7.313,7.313,0,0,1-.488-1.8c.018.125.036.253.05.378a7.174,7.174,0,0,1,0-1.874c-.018.125-.036.253-.05.378a7.313,7.313,0,0,1,.488-1.8c-.046.114-.1.228-.143.342a7.114,7.114,0,0,1,.919-1.575l-.224.289a7.244,7.244,0,0,1,1.279-1.279l-.289.224a7.255,7.255,0,0,1,1.575-.919c-.114.046-.228.1-.342.143a7.314,7.314,0,0,1,1.8-.488c-.125.018-.253.036-.378.05a7.174,7.174,0,0,1,1.874,0c-.125-.018-.253-.036-.378-.05a7.314,7.314,0,0,1,1.8.488c-.114-.046-.228-.1-.342-.143a7.114,7.114,0,0,1,1.575.919l-.289-.224a7.244,7.244,0,0,1,1.279,1.279l-.224-.289a7.255,7.255,0,0,1,.919,1.575c-.046-.114-.1-.228-.143-.342a7.314,7.314,0,0,1,.488,1.8c-.018-.125-.036-.253-.05-.378a8.22,8.22,0,0,1,.061.937,1.425,1.425,0,1,0,2.85,0,8.4,8.4,0,0,0-1.525-4.842,9.778,9.778,0,0,0-.88-1.072,9.079,9.079,0,0,0-1.051-.905,8.384,8.384,0,0,0-2.223-1.183,8.5,8.5,0,0,0-9.275,2.523,9.368,9.368,0,0,0-.827,1.147,8.767,8.767,0,0,0-.606,1.265,8.459,8.459,0,0,0,4.272,10.735,7.928,7.928,0,0,0,2.786.773,8.443,8.443,0,0,0,9.189-6.969,9.557,9.557,0,0,0,.132-1.461,1.422,1.422,0,0,0-2.843-.011Zm4.728,22.28H138.687c-.809,0-1.618.007-2.426,0a2.138,2.138,0,0,1-.264-.018c.125.018.253.036.378.05a1.792,1.792,0,0,1-.41-.114c.114.046.228.1.342.143a1.807,1.807,0,0,1-.4-.235l.289.224a2.058,2.058,0,0,1-.292-.292l.224.289a1.957,1.957,0,0,1-.235-.4c.046.114.1.228.143.342a2.058,2.058,0,0,1-.114-.41c.018.125.036.253.05.378a10.219,10.219,0,0,1-.018-1.322V68.2a8.655,8.655,0,0,1,.071-1.137c-.018.125-.036.253-.05.378a8.334,8.334,0,0,1,.581-2.127c-.046.114-.1.228-.143.342a8.379,8.379,0,0,1,1.065-1.817l-.224.289a8.457,8.457,0,0,1,1.482-1.482l-.289.224a8.379,8.379,0,0,1,1.817-1.065c-.114.046-.228.1-.342.143a8.441,8.441,0,0,1,2.127-.581c-.125.018-.253.036-.378.05a12.344,12.344,0,0,1,1.582-.071h6.52a13.851,13.851,0,0,1,1.76.071c-.125-.018-.253-.036-.378-.05a8.334,8.334,0,0,1,2.127.581c-.114-.046-.228-.1-.342-.143a8.378,8.378,0,0,1,1.817,1.065l-.289-.224a8.457,8.457,0,0,1,1.482,1.482l-.224-.289a8.378,8.378,0,0,1,1.065,1.817c-.046-.114-.1-.228-.143-.342a8.442,8.442,0,0,1,.581,2.127c-.018-.125-.036-.253-.05-.378a12.847,12.847,0,0,1,.071,1.614V70.44a4.9,4.9,0,0,1-.018.606c.018-.125.036-.253.05-.378a1.793,1.793,0,0,1-.114.41c.046-.114.1-.228.143-.342a1.806,1.806,0,0,1-.235.4l.224-.289a2.059,2.059,0,0,1-.292.292l.289-.224a1.958,1.958,0,0,1-.4.235c.114-.046.228-.1.342-.143a2.058,2.058,0,0,1-.41.114c.125-.018.253-.036.378-.05-.078.011-.16.014-.242.018a1.487,1.487,0,0,0-1.008.417,1.426,1.426,0,0,0,1.008,2.434,3.193,3.193,0,0,0,3.011-2.255,5.6,5.6,0,0,0,.125-1.635,21.389,21.389,0,0,0-.175-3.7,9.648,9.648,0,0,0-7.13-7.561,12.661,12.661,0,0,0-3.064-.289h-6.321a12.086,12.086,0,0,0-3.139.324,9.652,9.652,0,0,0-7.012,7.646,23.241,23.241,0,0,0-.153,3.659,4.733,4.733,0,0,0,.171,1.689,3.335,3.335,0,0,0,1.3,1.646,3.145,3.145,0,0,0,1.66.477c.278,0,.556,0,.834,0h19.9a1.427,1.427,0,1,0,0-2.854Z" transform="translate(-133.108 -40.327)" fill="#fff"/>
</svg>
